/* XPM */
static char *_fef4a6406b94a8e93392d786018687578LZQJsaZ2BcIK9t[] = {
/* columns rows colors chars-per-pixel */
"64 64 43 1 ",
"  c #234C8A",
". c #244D8A",
"X c #264E8B",
"o c #264F8C",
"O c #28508D",
"+ c #2A528E",
"@ c #2D5490",
"# c #2F5690",
"$ c #325892",
"% c #335993",
"& c #355B94",
"* c #3B6097",
"= c #3C6097",
"- c #3D6198",
"; c #40649A",
": c #42659B",
"> c #4A6C9F",
", c #4F70A1",
"< c #6582AD",
"1 c #B7C4D8",
"2 c #C3CFDF",
"3 c #C6D1E1",
"4 c #CBD5E3",
"5 c #CDD6E4",
"6 c #CFD8E5",
"7 c #D0D8E6",
"8 c #D6DDE9",
"9 c #D9E0EB",
"0 c #DBE2EC",
"q c #E1E6EF",
"w c #E3E8F0",
"e c #E4E9F1",
"r c #E9EDF3",
"t c #EAEEF4",
"y c #EFF2F6",
"u c #F0F3F7",
"i c #F1F4F8",
"p c #F2F4F8",
"a c #F4F6F9",
"s c #F7F9FB",
"d c #F8F9FB",
"f c #FBFBFD",
"g c #FCFCFD",
/* pixels */
"                                                                ",
"                                                                ",
"                                                                ",
"                                                                ",
"                                                                ",
"                                                                ",
"                                                                ",
"                                                                ",
"                   ...                                          ",
"                   ew.                                          ",
"                  .eg                                           ",
"                  .qgO                                          ",
"              o;;;;3p<>*,                                       ",
"              -8665.Oypsa                                       ",
"              $026e.Ogpfd                     tt                ",
"                  -epO oO                     yp                ",
"                  Ose&                        &O                ",
"                   9t&                                          ",
"                   ef=                                          ",
"                   .#                                           ",
"                                                                ",
"                                                                ",
"                                                                ",
"                                                                ",
"                                                                ",
"                                                                ",
"                                                                ",
"                                                                ",
"                                                                ",
"                                                      o         ",
"                                                      O         ",
"                                                                ",
"                                                                ",
"                  tt                                 t5         ",
"                  yp                                 tt         ",
"                  &o                               gaooyp       ",
"                                                   ys$ yy       ",
"                                                    Os1&O       ",
"                                                    Opp..       ",
"                                                                ",
"                                                                ",
"                                                                ",
"                                                                ",
"                                                                ",
"                                                                ",
"                                                                ",
"                                                                ",
"                                          .                     ",
"           o                             tw                     ",
"                                         eg                     ",
"                                      .. qgo                    ",
"          t5                        O;:;-3p<,&,                 ",
"          tt                        ;8666 +ipsp                 ",
"        gao pp                      #026w ogpgf                 ",
"        tf& ty                         .-0pO .O                 ",
"         os1%#                         oOfe&                    ",
"         opa                             8t&                    ",
"         .                               eg;                    ",
"                                         .#                     ",
"                                                                ",
"                                                                ",
"                                                                ",
"                                                                ",
"                                                                "
};
