/* XPM */
static char *b3bc2ab25ef040ded8a317516a89ec9egm1cNIWwp8HLjYYk[] = {
/* columns rows colors chars-per-pixel */
"64 64 157 2 ",
"   c #120536",
".  c #15053A",
"X  c #1A063E",
"o  c #130A3B",
"O  c #1E0642",
"+  c #1B0941",
"@  c #161446",
"#  c #121C4B",
"$  c #161E52",
"%  c #210746",
"&  c #250749",
"*  c #25094A",
"=  c #29084E",
"-  c #2D0952",
";  c #320957",
":  c #390A5E",
">  c #2B1358",
",  c #221F5C",
"<  c #281A5C",
"1  c #31115A",
"2  c #1C255E",
"3  c #152A5C",
"4  c #3E0B64",
"5  c #2F1B62",
"6  c #3E146C",
"7  c #3F1970",
"8  c #162D61",
"9  c #1C2D67",
"0  c #1E2F6B",
"q  c #1F3260",
"w  c #153468",
"e  c #1B3771",
"r  c #1B3C75",
"t  c #1C3E79",
"y  c #262564",
"u  c #292265",
"i  c #212A67",
"p  c #2D256D",
"a  c #222D6B",
"s  c #272F71",
"d  c #2D2E75",
"f  c #302871",
"g  c #332F7B",
"h  c #3B297C",
"j  c #263274",
"k  c #2A3176",
"l  c #263579",
"z  c #2D327A",
"x  c #213D7C",
"c  c #400B66",
"v  c #450C6A",
"b  c #490C6E",
"n  c #43136A",
"m  c #4D0D71",
"M  c #520E76",
"N  c #550E79",
"B  c #590E7D",
"V  c #4E1176",
"C  c #421A73",
"Z  c #41267F",
"A  c #572C75",
"S  c #1C427E",
"D  c #5D0F82",
"F  c #4E1D84",
"G  c #5E1184",
"H  c #551C86",
"J  c #591B8A",
"K  c #610F85",
"L  c #621087",
"P  c #65108A",
"I  c #69118E",
"U  c #6C1191",
"Y  c #681C96",
"T  c #711296",
"R  c #76139B",
"E  c #7A139E",
"W  c #4E2385",
"Q  c #512186",
"!  c #5F2095",
"~  c #7C14A1",
"^  c #7B1BA6",
"/  c #7B1EA9",
"(  c #7924AB",
")  c #1D4785",
"_  c #1D4886",
"`  c #1E4B8B",
"'  c #224F8E",
"]  c #3A4080",
"[  c #25518F",
"{  c #2D5692",
"}  c #2F5894",
"|  c #335B95",
" . c #385E95",
".. c #3D639A",
"X. c #434985",
"o. c #486CA0",
"O. c #4E70A2",
"+. c #8114A5",
"@. c #8515AA",
"#. c #8915AE",
"$. c #841AAD",
"%. c #8E16B2",
"&. c #8D18B3",
"*. c #9116B6",
"=. c #9218B6",
"-. c #9517B9",
";. c #9A17BE",
":. c #9419B9",
">. c #9918BD",
",. c #8521B3",
"<. c #8B20B6",
"1. c #8D77A3",
"2. c #907DAA",
"3. c #9B17C1",
"4. c #9D19C2",
"5. c #9F1FC8",
"6. c #A119C5",
"7. c #A61BCB",
"8. c #A91ACD",
"9. c #AE1BD3",
"0. c #B11CD5",
"q. c #B61DDA",
"w. c #BA1EDE",
"e. c #B720DA",
"r. c #BB20DF",
"t. c #BD1EE2",
"y. c #BD21E2",
"u. c #C11EE6",
"i. c #C41FE9",
"p. c #C121E5",
"a. c #C522E9",
"s. c #C923ED",
"d. c #CF25F2",
"f. c #D225F5",
"g. c #D526FA",
"h. c #6583AE",
"j. c #9B90A9",
"k. c #9A9BA9",
"l. c #A396B1",
"z. c #AF9CBA",
"x. c #B8C5D9",
"c. c #C6C5D1",
"v. c #C7CCD9",
"b. c #C6D1E1",
"n. c #CED7E4",
"m. c #D1DAE6",
"M. c #D8DDE5",
"N. c #D7DEEA",
"B. c #DCE3ED",
"V. c #E2E6ED",
"C. c #E5EAF1",
"Z. c #EBEEF4",
"A. c #EFF2F6",
"S. c #F1F3F7",
"D. c #F2F4F8",
"F. c #F7F9FB",
"G. c #FCFCFD",
/* pixels */
"` ` ` ` ` ` ` ` ` ` ` ` ` ` ` ` ` ` ` ` ` ` ` ` ` ` ` ` ` ` ` ` ` ` ` ` ` ` ` ` ` ` ` ` ` ` ` ` ` ` ` ` ` ` ` ` ` ` ` ` ` ` ` ` ",
"` ` ` ` ` ` ` ` ` ` ` ` ` ` ` ` ` ` ` ` ` ` ` ` ` ` ` ` ` ` ` ` ` ` ` ` ` ` ` ` ` ` ` ` ` ` ` ` ` ` ` ` ` ` ` ` ` ` ` ` ` ` ` ` ",
"` ` ` ` ` ` ` ` ` ` ` ` ` ` ` ` ` ` ` ` ` ` ` ` ` ` ` ` ` ` ` ` ` ` ` ` ` ` ` ` ` ` ` ` ` ` ` ` ` ` ` ` ` ` ` ` ` ` ` ` ` ` ` ` ",
"` ` ` ` ` ` ` ` ` ` ` ` ` ` ` ` ` ` ` ` ` ` ` ` ` ` ` ` ` ` ` ` ` ` ` ` ` ` ` ` ` ` ` ` ` ` ` ` ` ` ` ` ` ` ` ` ` ` ` ` ` ` ` ` ",
"` ` ` ` ` ` ` ` ` ` ` ` ` ` ` ` ` ` ` ` ` ` ` ` ` ` ` ` ` r i ` ` ` ` ` ` ` ` ` ` ` ` ` ` ` ` ` ` ` ` ` ` ` ` ` ` ` ` ` ` ` ` ` ",
"` ` ` ` ` ` ` ` ` ` ` ` ` ` ` ` ` ` ` ` ` ` ` ` ) 0 g g z W ~ z k j S ` ` ` ` ` ` ` ` ` ` ` ` ` ` ` ` ` ` ` ` ` ` ` ` ` ` ` ` ` ",
"` ` ` ` ` ` ` ` ` ` ` ` ` ` ` ` ` ` ` ` ` ` ` ` r n <.<.0.u.t.i.i.4.p ) ` ` ` ` ` ` ` ` ` ` ` ` ` ` ` ` ` ` ` ` ` ` ` ` ` ` ` ` ",
"` ` ` ` ` ` ` ` ` ` ` ` ` ` ` ` ` ` ` ` ` ` ` ` ` ` ` ` h 4.;.q.q.i.G # ` ` ` ` ` ` ` ` ` ` ` ` ` ` ` ` ` ` ` ` ` ` ` ` ` ` ` ` ",
"` ` ` ` ` ` ` ` ` ` ` ` ` ` ` ` ` ` ` ` ` ` ` ` ` ` ` ` ` 0 I q.q.t.*.B 5 ` ` ` ` ` ` ` ` ` ` ` ` ` ` ` ` ` ` ` ` ` ` ` ` ` ` ` ",
"` ` ` ` ` ` ` ` ` ` ` ` ` ` ` ` ` ` ` C.C.[ ` ` ` ` C J Q U @.;.6.q.0.0.Y ` ` ` ` ` ` ` ` ` ` ` ` ` ` ` ` ` ` ` ` ` ` ` ` ` ` ` ",
"` ` ` ` ` ` ` ` ` ` ` ` ` ` ` ` ` ` ` C.G.` ` ` S , +.-.-.-.-.*.*.7.q.a.5.f ` ` ` ` ` ` ` ` ` ` ` ` ` ` ` ` ` ` ` ` ` ` ` ` ` ` ",
"` ` ` ` ` ` ` ` ` ` ` ` ` ` ` ` ` ` ` V.G.' ` ` S P *.*.*.*.#.*.*.-.9.t.9.@.i ) ` ` ` ` ` ` ` ` ` ` ` ` ` ` ` ` ` ` ` ` ` ` ` ` ",
"` ` ` ` ` ` ` ` ` ` ` ` ` ` ' ........b.S.h.o. .X.3.*.%.#.@.+.#.#.@.7.u.0.%.U r ` ` ` ` ` ` ` ` ` ` ` ` ` ` ` ` ` ` ` ` ` ` ` ` ",
"` ` ` ` ` ` ` ` ` ` ` ` ` ` ..N.m.m.m.` ' A.S.l.~ *.%.R T I I T T K *.p.y.*.;.x ` ` ` ` ` ` ` ` ` ` ` ` ` ` ` ` ` ` ` ` ` ` ` ` ",
"` ` ` ` ` ` ` ` ` ` ` ` ` ` { B.v.m.C.' ' G.S.z.;.%.T I I I I I I I P -.f.e.=.*.l ` ` ` ` ` Z.Z.` ` ` ` ` ` ` ` ` ` ` ` ` ` ` ` ",
"` ` ` ` ` ` ` ` ` ` ` ` ` ` ` ` ` ` ..C.S.' ' l 4.*.U P P I I I P P P I *.s.6.-.~ g ` ` ` ` A.D.` ` ` ` ` ` ` ` ` ` ` ` ` ` ` ` ",
"` ` ` ` ` ` ` ` ` ` ` ` ` ` ` ` ` ` ' F.C.q p ! *.E +.@.T P I I D D P K ~ s.8.*.3.W ` ` ` ` } ' ` ` ` ` ` ` ` ` ` ` ` ` ` ` ` ` ",
"` ` ` ` ` ` ` ` ` ` ` ` ` ` ` ` ` ` ` N.k.4 ~ 3.#.#.7.0.@.K K K N B K P ~ u.0.3.*.H e ` ` ` ` ` ` ` ` ` ` ` ` ` ` ` ` ` ` ` ` ` ",
"` ` ` ` ` ` ` ` ` ` ` ` ` ` ` ` ` ` ` M.  ~ ;.-.4.w.s.w.+.K B N M M B D E t.u.3.*.~ 6 ` ` ` ` ` ` ` ` ` ` ` ` ` ` ` ` ` ` ` ` ` ",
"` ` ` ` ` ` ` ` ` ` ` ` ` ` ` ` ` ` ` ` o ~ -.4.u.u.w.T K B M M M N b m R w.t.3.-.^ C ` _ ` ` ` ` ` ` ` ` ` ` ` ` ` ` ` ` ` ` ` ",
"` ` ` ` ` ` ` ` ` ` ` ` ` ` ` ` ` ` ` )   ~ ;.7.a.p.E I L B M N M m c b P ~ t.3.*.+.7 ` 4.x ` ` ` ` ` ` ` ` ` ` ` ` ` ` ` ` ` ` ",
"` ` ` ` ` ` ` ` ` ` ` ` ` ` ` ` ` ` ` ) V ~ 9.p.s.8.T I B M N M v c c v b P 8.~ @.*.F ` t.t ` ` ` ` ` ` ` ` ` ` ` ` ` ` ` ` ` ` ",
"` ` ` ` ` ` ` ` ` ` ` ` ` ` ` ` ` ` ` _ ~ 3.e.d.0.E I K B N N N c 4 c 4 4 D -.T U #.U $ 0.t ` ` ` ` ` ` ` ` ` ` ` ` ` ` ` ` ` ` ",
"` ` ` ` ` ` ` ` ` ` ` ` ` ` ` ` ` ` ` _ $.0.p.e.@.L I B M M N b c c 4 4 4 b ~ U P ~ ^ D t.S ` ` ` ` ` ` ` ` ` ` ` ` ` ` ` ` ` ` ",
"` ` ` ` ` ` ` ` ` ` ` ` ` ` ` ` ` ` ` _ &.y.p.:.D P P B M N M c c c 4 ; = ; B P I R -.q.t.s ) ` ` ` ` ` ` ` ` ` ` ` ` ` ` ` ` ` ",
"` ` ` ` ` ` ` ` ` ` ` ` ` ` ` ` ` ` ` ) :.p.9.~ G U I B M N b c c 4 ; = = = : D I U %.9.t.G 9 ` ` ` ` ` ` ` ` ` ` ` ` ` ` ` ` ` ",
"` ` ` ` ` ` ` ` ` ` ` ` ` ` ` ` ` ` ` ` 7.s.%.P I I D N N N M c 4 : - = = & . M P E ;.9.q.9.k ` ` ` ` ` ` ` ` ` ` ` ` ` ` ` ` ` ",
"` ` ` ` ` ` ` ` ` ` ` ` ` ` ` ` ` ` ) ,.t.6.E P I I B N M M b 4 c ; = - & .   M P E ;.9.q.t.d ` ` ` ` ` ` ` ` ` ` ` ` ` ` ` ` ` ",
"` ` ` ` ` ` ` ` ` ` ` ` ` ` ` ` ` e < i.w.@.U I I I B N N m v c c - = & + .   M P E ;.9.q.8.z ` ` ` ` ` ` ` ` ` ` ` ` ` ` ` ` ` ",
"` ` ` ` ` ` ` ` ` ` ` ` ` ` ` ` ` 9 I t.8.~ I I I I D N N M v c c - = O       m I T #.9.t.Q t ` ` ` ` ` ` ` ` ` ` ` ` ` ` ` ` ` ",
"` ` ` ` ` ` ` ` ` ` ` ` ` ` ` ` ` k t.q.;.~ U I I I B N N M v c 4 - = &       M I U @.0.t.) ` ` ` ` ` ` ` ` ' ` ` ` ` ` ` ` ` ` ",
"` ` ` ` ` ` ` ` ` ` ` ` ` ` ` ` ` k 0.q.-.E U P I I B N N m v c c - = &   . . M P R ;.0.t.t ` ` ` ` ` ` ` ` ` ` ` ` ` ` ` ` ` ` ",
"` ` ` ` ` ` ` ` ` ` ` ` ` ` ` ` y +.t.q.=.E I I I I B N M M b c c - = &   . 4 K P ~ 7.t.t.t ` ` ` ` ` ` ` ` ` ` ` ` ` ` ` ` ` ` ",
"` ` ` ` ` ` ` ` ` ` ` ` ` ` ` ` u @.r.6.=.+.I I I I B N M M v c c - = %   . c K G ~ 7.t.s.t ` ` ` ` ` ` ` Z.n.` ` ` ` ` ` ` ` ` ",
"` ` ` ` ` ` ` ` ` ` ` ` ` ` ` ` u #.7.v %.+.I I I I B N M M v c c - = & X . 4 K P ~ 7.e.P r ` ` ` ` ` ` ` Z.Z.` ` ` ` ` ` ` ` ` ",
"` ` ` ` ` ` ` ` ` ` ` ` ` ` ` ` u =.<.# @.+.I I I I B N M M v c c ; - = & O v K P ~ 7.0.$ ) ` ` ` ` ` F.D.' ' A.D.` ` ` ` ` ` ` ",
"` ` ` ` ` ` ` ` ` ` ` ` ` ` ` ` i E ( ' $.+.I I I I B N M M v c 4 : - = = - b L P ~ 0.5.` ` ` ` ` ` ` A.F.{ ` A.A.` ` ` ` ` ` ` ",
"` ` ` ` ` ` ` ` ` ` ` ` ` ` ` ` ' d ^ _ +.+.I I I I B N M M v c 4 4 - = = - m L P :.s.&.) ` ` ` ` ` ` ` ' F.x.| ' ` ` ` ` ` ` ` ",
"` ` ` ` ` ` ` ` ` ` ` ` ` ` ` ` ` d / _ #.+.U P I I B N N M v c 4 4 - & = ; N L ~ 0.7.* ) ` ` ` ` ` ` ` ' D.D.` ` ` ` ` ` ` ` ` ",
"` ` ` ` ` ` ` ` ` ` ` ` ` ` ` ` ` g ( _ ; +.R +.-.B P B N M m c 4 4 : 4 4 c P L 4.d.7.+ ) ` ` ` ` ` ` ` ` ` ` ` ` ` ` ` ` ` ` ` ",
"` ` ` ` ` ` ` ` ` ` ` ` ` ` ` ` ` g ( ` o ~ E #.0.#.I B N N m c 4 4 v 4 c m I G 7.g.4.O ) ` ` ` ` ` ` ` ` ` ` ` ` ` ` ` ` ` ` ` ",
"` ` ` ` ` ` ` ` ` ` ` ` ` ` ` ` ` g $._   E E #.t.6.I B M N M c 4 4 4 c 4 m P ~ e.d.$.2 ) ` ` ` ` ` ` ` ` ` ` ` ` ` ` ` ` ` ` ` ",
"` ` ` ` ` ` ` ` ` ` ` ` ` ` ` ` ` d Y ` o ~ E @.t.6.U G N N M v v 4 v 4 c N U t.s.9.J ` ` ` ` ` ` ` ` ` ` ` ` ` ` ` ` ` ` ` ` ` ",
"` ` ` ` ` ` ` ` ` ` ` ` ` ` ` ` ` 8 @ _ o E E @.y.q.R U B N M N v c 4 4 b U *.y.9.@.7 ` ` ` ` ` ` ` ` ` ` ` ` ` ` ` ` ` ` ` ` ` ",
"` ` ` ` ` ` ` ` ` ` ` ` ` ` ` ` ` ` _ ` ` C @.@.+.a.~ I B M M N M 4 4 m P E a.7.-.+.C ` ` ` ` ` ` ` ` ` ` ` ` ` ` ` ` ` ` ` ` ` ",
"` ` ` ` ` ` ` ` ` ` ` ` ` ` ` ` ` ` ` ` ` C @.%.>.p.~ I P D M M M M v m ~ t.d.4.*.@.C ` ` ` ` ` ` ` ` ` ` ` ` ` ` ` ` ` ` ` ` ` ",
"` ` ` ` ` ` ` ` ` ` ` ` ` ` ` ` ` ` ` ` ` > T -.4.q.R I P K M N N M B D ~ f.9.-.;.E > ` ` ` ` ` ` ` ` ` ` ` ` ` ` ` ` ` ` ` ` ` ",
"` ` ` ` ` ` ` ` ` ` ` ` ` ` ` ` ` ` ` ` ` 3 G ;.-.0.>.T P P D m M M D P R 7.%.-.! p 3 ` ` ` ` ` ` ` ` ` ` ` ` ` ` ` ` ` ` ` ` ` ",
"` ` ` ` ` ` ` ` ` ` ` ` ` ` ` ` ` ` ` ` ` ` k ^ -.8.s.~ L U L D N D L P U ~ %.3.l Z.C.` ` ` ` ` ` ` ` ` ` ` ` ` ` ` ` ` ` ` ` ` ",
"` ` ` ` ` ` ` ` ` ` ` ` ` ` ` ` ` ` ` ` ` ` ` k 4.7.s.@.P I I U I P I I U *.*.3.k C.G.` ` ` ` ` ` ` ` ` ` ` ` ` ` ` ` ` ` ` ` ` ",
"` ` ` ` ` ` ` ` ` ` ` ` ` ` ` ` ` ` ` ` ` ` ` k 3.-.t.t.%.I P I I I U U R -.-.~ a V.G.' ` ` ` ` ` ` ` ` ` ` ` ` ` ` ` ` ` ` ` ` ",
"` ` ` ` ` ` ` ` ` ` Z.n.` ` ` ` ` ` ` ` ` ` ` 8 D ;.6.a.0.@.K P P ~ @.#.%.-.3.]  .b.D.h.O.| O.` ` ` ` ` ` ` ` ` ` ` ` ` ` ` ` ` ",
"` ` ` ` ` ` ` ` ` ` Z.Z.` ` ` ` ` ` ` ` ` ` ` S 2 K *.7.q.6.R ~ ~ %.*.*.-.#.2.n.m.` ' D.D.F.D.` ` ` ` ` ` ` ` ` ` ` ` ` ` ` ` ` ",
"` ` ` ` ` ` ` ` G.D.' ` D.D.` ` ` ` ` ` ` ` ` ` S : %.*.0.q.6.-.-.*.*.-.^ 1.v.m.C.` ' G.D.G.G.` ` ` ` ` ` ` ` ` ` ` ` ` ` ` ` ` ",
"` ` ` ` ` ` ` ` A.G.| ` Z.A.` ` ` ` ` ` ` ` ` ` t > E @.>.q.q.4.*.*.*.%.J S r ` ..v.c.' ` ` ' ` ` ` ` ` ` ` ` ` ` ` ` ` ` ` ` ` ",
"` ` ` ` ` ` ` ` ` ` F.x.} { ` ` ` ` ` ` ` ` ` ` ` ` 1 c m ~ w.e.-.*.;.R b M N t ' j.A | ` ` ` ` ` ` ` ` ` ` ` ` ` ` ` ` ` ` ` ` ",
"` ` ` ` ` ` ` ` ` ` D.F.` ` ` ` ` ` ` ` ` ` ` ` ` ` ) ` # G i.q.0.0.0.6.;.0.u.x ` m.V.| ` ` ` ` ` ` ` ` ` ` ` ` ` ` ` ` ` ` ` ` ",
"` ` ` ` ` ` ` ` ` ` ` ` ` ` ` ` ` ` ` ` ` ` ` ` ` ` ` ` ) p 3.i.w.q.w.w.t.u.T r ` C.G...` ` ` ` ` ` ` ` ` ` ` ` ` ` ` ` ` ` ` ` ",
"` ` ` ` ` ` ` ` ` ` ` ` ` ` ` ` ` ` ` ` ` ` ` ` ` ` ` ` ` S a g 8.w.0.9.=.k 0 ) ` ` { ` ` ` ` ` ` ` ` ` ` ` ` ` ` ` ` ` ` ` ` ` ",
"` ` ` ` ` ` ` ` ` ` ` ` ` ` ` ` ` ` ` ` ` ` ` ` ` ` ` ` ` ` ` ` h T H Z d ` ` ` ` ` ` ` ` ` ` ` ` ` ` ` ` ` ` ` ` ` ` ` ` ` ` ` ",
"` ` ` ` ` ` ` ` ` ` ` ` ` ` ` ` ` ` ` ` ` ` ` ` ` ` ` ` ` ` ` ` ' # w ` ` ` ` ` ` ` ` ` ` ` ` ` ` ` ` ` ` ` ` ` ` ` ` ` ` ` ` ` ",
"` ` ` ` ` ` ` ` ` ` ` ` ` ` ` ` ` ` ` ` ` ` ` ` ` ` ` ` ` ` ` ` ` ` ` ` ` ` ` ` ` ` ` ` ` ` ` ` ` ` ` ` ` ` ` ` ` ` ` ` ` ` ` ` ",
"` ` ` ` ` ` ` ` ` ` ` ` ` ` ` ` ` ` ` ` ` ` ` ` ` ` ` ` ` ` ` ` ` ` ` ` ` ` ` ` ` ` ` ` ` ` ` ` ` ` ` ` ` ` ` ` ` ` ` ` ` ` ` ` ",
"` ` ` ` ` ` ` ` ` ` ` ` ` ` ` ` ` ` ` ` ` ` ` ` ` ` ` ` ` ` ` ` ` ` ` ` ` ` ` ` ` ` ` ` ` ` ` ` ` ` ` ` ` ` ` ` ` ` ` ` ` ` ` ` "
};
