/* XPM */
static char *_8d72f39bb1d4175beedbc2049ed4ee0shokfB1S6bBk6m9U[] = {
/* columns rows colors chars-per-pixel */
"64 64 132 2 ",
"   c #030303",
".  c #090706",
"X  c #0A0806",
"o  c #02050A",
"O  c #0B050B",
"+  c #04080E",
"@  c #0C0D0C",
"#  c #120F0B",
"$  c #0E100E",
"%  c #16110D",
"&  c #1B150F",
"*  c #050A12",
"=  c #0A0D13",
"-  c #070F1B",
";  c #130D13",
":  c #0E1110",
">  c #0F131B",
",  c #131313",
"<  c #1E1614",
"1  c #1D1A17",
"2  c #13171D",
"3  c #19161A",
"4  c #17181A",
"5  c #1B1C1C",
"6  c #211E19",
"7  c #282018",
"8  c #091220",
"9  c #221922",
"0  c #291829",
"q  c #222121",
"w  c #1D3D6F",
"e  c #1D3E71",
"r  c #1E4175",
"t  c #1F437A",
"y  c #20467E",
"u  c #757576",
"i  c #777778",
"p  c #7B7B7B",
"a  c #C27576",
"s  c #CDA57B",
"d  c #214780",
"f  c #224985",
"g  c #234C8A",
"h  c #27508C",
"j  c #29518D",
"k  c #3B5C8E",
"l  c #2E5590",
"z  c #345A93",
"x  c #3C5E90",
"c  c #3C6097",
"v  c #3D6198",
"b  c #41659B",
"n  c #4D6D9D",
"m  c #E4338E",
"M  c #FF399F",
"N  c #FF3DA3",
"B  c #FF41A7",
"V  c #FF43A9",
"C  c #D17ED1",
"Z  c #848484",
"A  c #8C8383",
"S  c #878888",
"D  c #8B8B8B",
"F  c #948B8A",
"G  c #8F9292",
"H  c #949494",
"J  c #9B9797",
"K  c #979999",
"L  c #9A9A9A",
"P  c #A09595",
"I  c #A49C9C",
"U  c #A99D9D",
"Y  c #A2A2A2",
"T  c #D78383",
"R  c #DC8383",
"E  c #E08686",
"W  c #E58E8E",
"Q  c #EC9999",
"!  c #F29797",
"~  c #F49999",
"^  c #FD9A9A",
"/  c #D8AD82",
"(  c #DEB284",
")  c #E3B687",
"_  c #E4B689",
"`  c #E6BB8C",
"'  c #EEBF8D",
"]  c #E9BF92",
"[  c #FFA2A2",
"{  c #F1C28E",
"}  c #EEC392",
"|  c #F3C392",
" . c #FFCE96",
".. c #FFCC9B",
"X. c #FFD29D",
"o. c #FFC6A5",
"O. c #FFCCA3",
"+. c #FFC3AA",
"@. c #FFD3A0",
"#. c #B6BBC6",
"$. c #DA82DD",
"%. c #E484DF",
"&. c #E287E2",
"*. c #E489E4",
"=. c #EA8DEA",
"-. c #EB90EB",
";. c #FF95EE",
":. c #FF8FF5",
">. c #F595F7",
",. c #FF90F6",
"<. c #FF9EF4",
"1. c #FF95FB",
"2. c #FF9AFE",
"3. c #FFA2ED",
"4. c #FFA2F3",
"5. c #FFA1FD",
"6. c #B7C4D8",
"7. c #CCCCCC",
"8. c #C3CFDF",
"9. c #CBD5E3",
"0. c #CFD8E5",
"q. c #D6DDE9",
"w. c #DAE1EC",
"e. c #E1E6EF",
"r. c gray91",
"t. c #E5EAF1",
"y. c #E9EDF4",
"u. c #EEF1F6",
"i. c #F0F3F7",
"p. c #F3F5F9",
"a. c #F7F9FB",
"s. c #FBFCFD",
/* pixels */
"g g g g g g g g g g g g g g g g g g g g g g g g g g g g g g g g g g g g g g g g g g g g g g g g g g g g g g g g g g g g g g g g ",
"g g g g g g g g g g g g g g g g g g g g g g g g g g g g g g g g g g g g g g g g g g g g g g g g g g g g g g g g g g g g g g g g ",
"g g g g g g g g g g g g g g g g g g g g g g g g g g g g g g g g g g g g g g g g g g g g g g g g g g g g g g g g g g g g g g g g ",
"g g g g g g g g g g g g g g g g g g g g g g g g g g g g g g g g g g g g g g g g g g g g g g g g g g g g g g g g g g g g g g g g ",
"g g g g g g g g g g g g g g g g g g g g g g g g g g g g g g g g g g g g g g g g g g g g g g g g g g g g g g g g g g g g g g g g ",
"g g g g g g g g g g g g g g g g g g g g g g g g g g g g g g g g g g g g g g g g g g g g g g g g g g g g g g g g g g g g g g g g ",
"g g g g g g g g g g g g g g g g g g g g g g g g g g g g g g g g g g g g g g g g g g g g g g g g g g g g g g g g g g g g g g g g ",
"g g g g g g g g g g g g g g g g g g g g g g g g g g g g g g g g g g g g g g g g g g g g g g g g g g g g g g g g g g g g g g g g ",
"g g g g g g g g g g g g g g g g g g g g g g g g g g g g g g g g g g g g g g g g g g g g g g g g g g g g g g g g g g g g g g g g ",
"g g g g g g g g g g g g g g g g g g g y.t.g g g g g g g g g g g g g g g g g g g g g g g g g g g g g g g g g g g g g g g g g g g ",
"g g g g g g g g g g g g g g g g g g g t.s.g g g g g g g g g g g g g g g g g g g g g g g g g g g g g g g g g g g g g g g g g g g ",
"g g g g g g g g g g g g g g g g g g g e.s.h g g g g g g g g g g g g g g g g g g g g g g g g g g g g g g g g g g g g g g g g g g ",
"g g g g g g g g g g g g g g g x = o + $ , X + o o o o o o o o o o o o o o o o o o o o o o o o o o - g g g g g g g g g g g g g g ",
"g g g g g g g g g g g g g g x #., % % @ % @ % # % @ @ % # # # % # # # # # # @ # % # % @ # # # # $ , t d g g g g g g g g g g g g ",
"g g g g g g g g g g g g g f * 1 ( } ' ' ' ' ' ' ' ' { ' { ' ' } ' ' { ' ' ' ' ' ' ' ' ' ' ' ' ' } s o - g g g g g g g g g g g g ",
"g g g g g g g g g g g g d e % 7 | X.X...O.O.O.O.O.O.O...o.O.O.O.O.O.O.O.O.O.O.O.O.O.O.O.O.O.X...@.) < 2 t d g g g g g g g g g g ",
"g g g g g g g g g g g d * , ) } .... ...<.2.<.2.<.2.<.<.2.<.2.<.2.<.2.<.<.2.2.<.2.<.2.<.2.3... .....} s @ - f g g g g g g g g g ",
"g g g g g g g g g g g d   # | @.....O.+.2.1.2.1.2.1.1.2.2.1.1.,.2.1.2.2.1.,.2.2.2.1.2.1.1.<.o..... .@.)   + g g g g g g g g g g ",
"g g g g g g g g g g g d o % | .. .o.<.<.2.2.2.2.2.2.2.2.2.,.M N 1.2.2.,.M N 1.2.2.2.2.2.2.2.2.3.....X.( o + g g g g g g g g g g ",
"g g g g g g g g g g g d o % ' ....+.2.1.,.,.2.2.2.1.2.2.2.,.N V 1.2.2.:.N V 2.2.2.2.2.2.2.2.2.<.O...X.( . = f g g g g g g g g g ",
"g g g g g g g g g g g t   % { o.<.2.2.,.N N 1.2.2.2.2.2.2.2.1.,.2.2.2.2.1.2.2.2.1.2.2.2.2.2.2.2.2.3.O.(   = f g g g g g g g g g ",
"g g g g g g g g g g g d o % { O.<.2.2.,.N B 1.2.2.2.1.2.2.2.2.2.2.2.2.1.-.=.=.=.2.2.2.1.,.,.2.2.1.<.@.(   * f g t d d t g g g g ",
"g g g g g g g g g g g d o % { O.2.2.2.2.1.,.2.2.1.2.2.2.2.2.2.2.1.2.5.=.; O O 0 2.2.2.:.M V 1.2.2.<.X.(   = g y + o o - g g g g ",
"g g g g g g g g g g g t o % { O.<.1.2.2.2.2.2.2.2.2.2.2.1.2.2.2.2.2.=.C : . @ 9 &.-.2.:.N V 1.2.1.4.@.(   + y w @ @ $ > t d g g ",
"g g g g g g g g g g g t o % { O.2.1.2.2.2.2.1.2.2.1.2.2.2.2.2.2.2.*.; 3 D H H p O 0 2.2.1.1.2.2.2.<.@.(     o > D H H p o - f g ",
"d t d d t t d d g g g d o % { O.<.2.2.2.2.2.2.2.2.2.2.2.,.,.2.2.2.*.  @ H L Y D @ 9 $.-.2.2.2.2.1.<.@.(     @ 7 L L Y S   * g g ",
"*   o o o o o * f g g d o % { O.<.1.2.2.2.2.2.2.2.2.2.:.M N 1.2.5.*.. $ H L L K H p O 0 2.5.2.2.2.4.@.)   @ D H K K L Z o * g g ",
"o   @ @ @ O     t t g d o % { o.2.2.2.1.2.2.2.2.2.2.2.,.N V 1.2.2.*.  = H J K K Y S @ 9 &.=.=.=.-.*.} s @ 5 L I L L Y Z   = f g ",
"o O D K H Z .   o * g f o # { O.<.2.2.2.2.2.2.2.1.2.2.2.,.1.2.2.2.*.  $ H J L L K K J p @ O O X O X . 1 D H L K L K L Z   * f g ",
"o O Z H L G 3 @   o r r o % { o.2.1.2.1.2.1.,.,.2.2.2.2.2.2.2.2.2.*.  $ H L K L K K I D $ X O X X @ + 5 L L L K K K Y Z   * f g ",
"o   . : H L K S           % { O.<.2.2.2.2.,.M N 1.2.2.2.2.2.2.2.5.=.  O H J L K L L K K H H G H G G H H L K K L K K Y Z   - h g ",
"* +   . Z D L H 4 @       # { O.2.2.2.2.2.,.N V ,.2.2.2.2.2.,.:.*.$.; 5 H L L K J K K K L L L L L L L L L J K L J K L S : > t t ",
"f t     . , H L H Z       % { O.2.2.2.2.2.1.1.1.2.2.2.1.2.:.N m @ 3 D H L L L K H K L L J L L L K K K K K J K K L L K K H p o - ",
"g f * +   O Z D L G 1 @   % { o.<.2.,.,.2.2.2.2.2.2.2.2.2.:.N m   @ K L L L K L Y Y D D L L L H L K L J K L Y Y D D L L Y Z   * ",
"g g d t o   . , H Y K S o # { O.2.,.N N 1.2.2.2.1.2.2.2.2.2.2.%.  @ H L K K H Y s.r.@ , H L L L L L L L J Y s.q.X 4 H L L Z   * ",
"g g g d * +   o Z D D Z   # { o.2.,.N V 1.2.1.2.2.2.2.2.2.2.5.*.  @ H J L L L Y r.7.  @ H L L L K K D F J Y r.7.  % K L L Z   = ",
"g g g g f t     X X X o   # { O.<.1.1.1.2.2.2.2.2.2.2.2.2.2.2.*.  @ H J K L L S @ X   , H L K K L S . , L S @ .   , H L Y Z   * ",
"g g g g g d * * o o       % { O.<.2.2.2.2.2.2.2.2.1.,.,.2.2.2.*.. @ H K I P U F # @ @ 5 H L L L L D $ 5 L D @ @ @ q J I U A   * ",
"g g g g g g f f g r       # { O.2.1.2.2.2.2.2.2.2.,.M N 1.2.5.*.  # H I ~ ^ ^ Q H G K K K L K L L L H H K L H H H J ~ ^ ^ T   * ",
"g g g g g g g g g d * o   % { O.4.<.2.2.:.,.2.2.2.,.N V 2.2.2.*.. = H I ^ ^ ^ ! I K D D K K L L D D L J L H D G K U ^ ^ [ R   * ",
"g g g g g g g g g g f r o % | ....o.2.:.M N 1.2.2.2.1.1.2.2.2.*.  . H U ^ ^ ^ ~ L S O 4 K I Y S X 4 L L L D . 4 H U ^ ^ [ E   * ",
"g g g g g g g g g g g d o % | ......<.;.N V 1.2.2.2.2.2.1.2.2.=.3 0 Z F ! ~ ~ Q I S   @ Z D D i   @ S D D u   , H U ~ ! W a * > ",
"g g g g g g g g g g g f o % | X.......+.1.1.2.2.1.2.2.1.2.1.2.1.>.$.o , K U L J L S                     .     $ H J Y D @ = d f ",
"g g g g g g g g g g t e   # / ] .... ...4.<.<.<.<.<.<.<.<.<.<.<.4.*.< 6 S D L L L D , @ = % @ @ $ @ % = @ @ % q H L D i + 8 g g ",
"g g g g g g g g g d *       . & | @.X.X.O.X.@.O.@.O.X.@.O.@.O.@.@.@...( @ , H L L I H L H L H K H L H K L K H K Y S O = d f g g ",
"g g g g g g g g y e , : @ % @ 6 / _ ) _ ) ) ) ) ) ) ) ) ) ) ) _ _ ) ` s   @ Z D S D D D D D D D D D D D D S D D D u * 8 g g g g ",
"g g g g g g g t o = D H H H K D % O X X X X   .     X X X X X X X X X X     .           . o   . .           . o . * f f g g g g ",
"g g g g g g g d   @ H L L L G p o   + o     @ @ @ @     + + + * + + + * o +     $ : @ @     + o     # @ $ O     o 8 g g g g g g ",
"g g g g g g g t o @ H Y Y G @ .     d t o O G K J D X o t f f f f f g f f r   , H L L S   * f r   , H H L S   + d f g g g g g g ",
"g g g g g g g d o @ p D D p o   * - g d o @ Z D D p = - f g g g g g g g g t * 2 S D D i . * g t * 2 S D D i * > g g g g g g g g ",
"g g g g g g g d       . . o     t g g t o     o o = t g g g g g g g g g g g g r .   o .   o g g g e .   o * d f g g g g g g g g ",
"g g g g g g g d - * 4 4 + o * - g g g d = + + * + - f g g g g g g g g g h v b k = 4 5 = = 8 n g g t * * * 8 g g g g g g g g g g ",
"g g g g g g g g g g y.y.g g g g g g g g g g g g g g g g g g g g g g g g c q.0.0.9.g l u.i.a.p.g g g g g g g g g g g g g g g g g ",
"g g g g g g g g s.p.j g i.u.g g g g g g g g g g g g g g g g g g g g g g z w.8.0.t.g h s.i.s.s.g g g g g g g g g g g g g g g g g ",
"g g g g g g g g u.a.z g u.u.g g g g g g g g g g g g g g g g g g g g g g g g g g z t.u.l g g l g g g g g g g g g g g g g g g g g ",
"g g g g g g g g g j a.6.z l g g g g g g g g g g g g g g g g g g g g g g g g g g l a.t.z g g g g g g g g g g g g g g g g g g g g ",
"g g g g g g g g g h i.i.g g g g g g g g g g g g g g g g g g g g g g g g g g g g g w.y.z g g g g g g g g g g g g g g g g g g g g ",
"g g g g g g g g g g g g g g g g g g g g g g g g g g g g g g g g g g g g g g g g g t.s.c g g g g g g g g g g g g g g g g g g g g ",
"g g g g g g g g g g g g g g g g g g g g g g g g g g g g g g g g g g g g g g g g g g l g g g g g g g g g g g g g g g g g g g g g ",
"g g g g g g g g g g g g g g g g g g g g g g g g g g g g g g g g g g g g g g g g g g g g g g g g g g g g g g g g g g g g g g g g ",
"g g g g g g g g g g g g g g g g g g g g g g g g g g g g g g g g g g g g g g g g g g g g g g g g g g g g g g g g g g g g g g g g ",
"g g g g g g g g g g g g g g g g g g g g g g g g g g g g g g g g g g g g g g g g g g g g g g g g g g g g g g g g g g g g g g g g ",
"g g g g g g g g g g g g g g g g g g g g g g g g g g g g g g g g g g g g g g g g g g g g g g g g g g g g g g g g g g g g g g g g ",
"g g g g g g g g g g g g g g g g g g g g g g g g g g g g g g g g g g g g g g g g g g g g g g g g g g g g g g g g g g g g g g g g "
};
