/* XPM */
static char *_d3339f0b1a6493eb9aed51c622100365hkZ0lJdhqK3ffiD[] = {
/* columns rows colors chars-per-pixel */
"64 64 114 2 ",
"   c black",
".  c #000001",
"X  c #0C0101",
"o  c #1D0102",
"O  c gray11",
"+  c #210202",
"@  c #2B0101",
"#  c #280202",
"$  c #280203",
"%  c #2A0202",
"&  c #2D0101",
"*  c #370101",
"=  c #3F1919",
"-  c gray14",
";  c #282828",
":  c gray21",
">  c gray22",
",  c #420304",
"<  c #5B0201",
"1  c #7A0606",
"2  c #572B2B",
"3  c #373846",
"4  c #393A48",
"5  c #3D3E4C",
"6  c gray28",
"7  c gray31",
"8  c #424251",
"9  c #434452",
"0  c #444552",
"q  c #484856",
"w  c #4C4D5A",
"e  c #4E4F5C",
"r  c #535353",
"t  c #535460",
"y  c gray42",
"u  c #676773",
"i  c #767676",
"p  c #910606",
"a  c #970808",
"s  c #970809",
"d  c #990809",
"f  c #9F0808",
"g  c #A60707",
"h  c #A90401",
"j  c #AC0707",
"k  c #AE0906",
"l  c #B20401",
"z  c #B60706",
"x  c #BF0401",
"c  c #BA0704",
"v  c #B3090A",
"b  c #BF0808",
"n  c #C20401",
"m  c #C90401",
"M  c #CF0401",
"N  c #CB0707",
"B  c #C20808",
"V  c #D30401",
"C  c #D50401",
"Z  c #DB0501",
"A  c #E10603",
"S  c #E30603",
"D  c #EC0502",
"F  c #EC0602",
"G  c #ED0602",
"H  c #F20501",
"J  c #F70501",
"K  c #F70602",
"L  c #F70B07",
"P  c #F70C08",
"I  c #F83633",
"U  c #F83B38",
"Y  c #897B7B",
"T  c #FA7C7A",
"R  c #1E4B8B",
"E  c #1F4C8B",
"W  c #214E8D",
"Q  c #234F8E",
"!  c #25518F",
"~  c #2B5591",
"^  c #2E5793",
"/  c #2F5894",
"(  c #325B95",
")  c #3A6199",
"_  c #3E649B",
"`  c #40659C",
"'  c #486CA0",
"]  c #4E70A2",
"[  c #6583AE",
"{  c #B2ABAB",
"}  c #FB9594",
"|  c #B8C5D9",
" . c #D0D0D0",
".. c #FDCAC9",
"X. c #FDD4D3",
"o. c #C4D0E0",
"O. c #C7D2E2",
"+. c #CED7E5",
"@. c #D0D9E6",
"#. c #D7DEEA",
"$. c #DCE3ED",
"%. c #E2E7EF",
"&. c #FEE3E3",
"*. c #E4E9F0",
"=. c #E5EAF1",
"-. c #EBEEF4",
";. c #EFF2F6",
":. c #F1F4F8",
">. c #F2F4F8",
",. c #F4F6F9",
"<. c #F7F9FB",
"1. c #F8F9FB",
"2. c #FBFBFD",
"3. c white",
/* pixels */
"R R R R R R R R R R R R R R R R R R R R R R R R R R R R R R R R R R R R R R R R R R R R R R R R R R R R R R R R R R R R R R R R ",
"R R R R R R R R R R R R R R R R R R R R R R R R R R R R R R R R R R R R R R R R R R R R R R R R R R R R R R R R R R R R R R R R ",
"R R R R R R R R R R R R R R R R R R R R R R R R R R R R R R R R R R R R R R R R R R R R R R R R R R R R R R R R R R R R R R R R ",
"R R R R R R R R R R R R R R R R R R R R R R R R R R R R R R R R R R R R R R R R R R R R R R R R R R R R R R R R R R R R R R R R ",
"R R R R R R R R R R R R R R R R R R R R R R R R R R R R R R R R R R R R R R R R R R R R R R R R R R R R R R R R R R R R R R R R ",
"R R R R R R R R R R R R R R R R R R R R R R R R R R R R R R R R R R R R R R R R R R R R R R R R R R R R R R R R R R R R R R R R ",
"R R R R R R R R R R R R R R R R R R R R R R R R R R R R R R R R R R R R R R R R R R R R R R R R R R R R R R R R R R R R R R R R ",
"R R R R R R R R R R R R R R R R R R R R R R R R R R R R R R R R R R R R R R R R R R R R R R R R R R R R R R R R R R R R R R R R ",
"R R R R R R R R R R R R R R R R R R R W R W R R R R R R R R R R R R R R R R R R R R R R R R R R R R R R R R R R R R R R R R R R ",
"R R R R R R R R R R R R R R R R R R R %.%.R R R R R R R R R R R R R R R R R R R R R R R R R R R R R R R R R R R R R R R R R R R ",
"R R R R R R R R R R R R R R R R R R W =.2.W E R R R R R R R R R R R R R R R R R R R R R R R R R R R R R R R R R R R R R R R R R ",
"R R R R R R R R R R R R R R R R R R W %.2.W R R R R R R R R R R R R R R R R R R R R R R R R R R R R R R R R R R R R R R R R R R ",
"R R R R R R R R R R R R R R W _ _ _ _ o.>.[ ' ) ] R R R R R R R R R R R R R R R R R R R R R R R R R R R R R R R R R R R R R R R ",
"R R R R R R R R R R R R R R ) #.@.@.+.W W ;.>.1.,.R R R R R R R R R R R R R R R R R R R R R R W R R R R R R R R R R R R R R R R ",
"R R R R R R R R R R R R R R ^ $.o.@.=.W W 3.>.2.1.R R R R R R R R R R R R R R R R R R R R R -.-.R R R R R R R R R R R R R R R R ",
"R R R R R R R R R R R R R R R R W W ( =.>.W E W W R R R R R R R R R R R R R R R R R R R R R -.>.R R R R R R R R R R R R R R R R ",
"R R R R R R R R R R R R R R R R R R :                     R R R R R R R W               . .   ; R R R R R R R R R R R R R R R R ",
"R R R R R R R R R R R R R R R R R R :                     R R R R R R R R               . .   ; R R R R R R R R R R R R R R R R ",
"R R R R R R R R R R R R R R R R R R 2 * * * * * * * * * * R R R R R E R W * * * * * * * * $ @ = R R R R R R R R R R R R R R R R ",
"R R R R R R R R R R R R R R R R     n J J J J J J J J J J     ; R R >     J J J K K K K K v v s     R R R R R R R R R R R R R R ",
"R R R R R R R R R R R R R R R R     n J J J J J J J J J J     ; R R >     K K J K K J J K v v s     E R R R R R R R R R R R R R ",
"R R R R R R R R R R R R R O O = Z Z H J J &.&.&.&.&.I J J Z Z c O O k Z Z J J J K K J J K G H S f g = O O R R R R R R R R R R R ",
"R R R R R R R R R R R R R     @ J J J J J 3.3.3.3.3.U J J J J M     x J J J J J J J J J J J J F v v @     R R R R R R R R R R R ",
"R R R R R R R R R R R R R     @ J J J J J 3.3.3.3.3.U J J J J M     x J J J J J J J J J J J J F v v @     R R R R R R R R R R R ",
"R R R R R R R R R R R R R     @ J J ..3.3.3.3.X.J J J J J J J J J J J J J J J J J J J J J J J F v v @     R R R R R R R R R R R ",
"R R R R R R R R R R R R R     @ J J ..3.3.3.3.X.J J J J J J J J L J J J J J J J J J J J J J J F v v $     R R R R R R R R R R R ",
"R R R R R R R R R R R R R     @ J J ..3.3.} } T J J J J J J J J J J J J J J J J J J J J J J J F v v $     R R R R R R R R R R R ",
"R R R R R R R R R R R R R     @ J J ..3.3.J J J J J J J J J J J J J J J J J J J J J J J J J J F v v @     R R R R R R R R R R R ",
"R R R R R R R R R R R R R     @ J J ..3.3.J J J J J J J J J J J J J J J J J J J J J J J J J J G v v @     R R R R R R R R R R R ",
"R R R R R R R R R R R R R     @ J J L P P J J J J J J J J J J J J J J J J J J J J J J J J J J G v v @     R W R R R R R R R R R ",
"R R R R R R R R R R R R R     @ J J J J J J J J J J J J J J J J J J J J J J J J J J J J J J J G v v $     R W R R R R R R R R R ",
"R R R R R R R R R R R R R     @ J J J J J J J J J J J J J J J J J J J J J J J J J J J J J J J G v v @     R E R R R R R R R R R ",
"R R R R R R R R R R R R R     @ J J J J J J J J J J J J J J J J J J J J J J J J J J J J J J J D v v @     R R R R R R R R R R R ",
"R R R R R R R R R R R R R     @ J J J J J J J J J J J J J J J J J J J J J J J J J J J J J J J D v v @     -.+.R R R R R R R R R ",
"R R R R R R R R R R R R R R R R < < C J J J J J J J J J J J J J J J J J J J J J J J J J J N N z , , Y R R -.-.R R R R R R R R R ",
"R R R R R R R R R R R R R R R R     n J J J J J J J J J J J J J J J J J J J J J J J J J J v v a     R 3.,.W W ;.>.R R R R R R R ",
"R R R R R R R R R R R R R R R R     n J J J J J J J J J J J J J J J J J J J J J J J J J J v v s     R ;.<.^ R ;.;.R R R R R R R ",
"R R R R R R R R R R R R R R R R R R :     J J J J J J J J J J J J J J J J J J J L J B v v     ; R R R R W <.| ( W R R R R R R R ",
"R R R R R R R R R R R R R R R R R R :     J J J J J J J J J J J J J J J J J J J J J B v v     ; R R R R W >.>.W W R R R R R R R ",
"R R R R R R R R R R R R R R R R R R r - - V V Z J J J J J J J J J J J J J J J J D D j d d - - 6 R R R R E R R R R R R R R R R R ",
"R R R R R R R R R R R R R R R R R R R R R     @ J J J J J J J J J J J J J J J D v v @     R R R R R R R R R R R R R R R R R R R ",
"R R R R R R R R R R R R R R R R R R R R R     @ J J J J J J J J J J J J J J J D v v @     R R R R R R R R R R R R R R R R R R R ",
"R R R R R R R R R R R R R R R R R R R R R  . .{ & & m J J J J J J J J J J b b g + + E R R R R R R R R R R R R R R R R R R R R R ",
"R R R R R R R R R R R R R R R R R R R R R R R R     n J J J J J J J J J J v v s     R R R R R R R R R R R R R R R R R R R R R R ",
"R R R R R R R R R R R R R R R R R R R R R R R R     n J J J J J J J J J J v v s     R R R R R R R R R R R R R R R R R R R R R R ",
"R R R R R R R R R R R R R R R R R R R R R R R R R R >     J J J J J B v v     ; R R R R R R R R R R R R R R R R R R R R R R R R ",
"R R R R R R R R R R R R R R R R R R R R R R R R R R >     J J J J J B v v     ; R R R R R R R R R R R R R R R R R R R R R R R R ",
"R R R R R R R R R R R R R R R R R R R R R R R R E W i 7 w h h l A A p 1 1 7 7 y R R E R R R R R R R R R R R R R R R R R R R R R ",
"R R R R R R R R R R R W R R R R R R R R R R R R R R R R R     o v v &     R R R W -.%.R R R R R R R R R R R R R R R R R R R R R ",
"R R R R R R R R R R R R R R R R R R R R R R R R R R R R R     o v v @     R R R R =.2.W R R R R R R R R R R R R R R R R R R R R ",
"R R R R R R R R R R R R R R R R R R R R R R R R R R R R R R R R X X R R R R W W R %.3.W R R W W R R R R R R R R R R R R R R R R ",
"R R R R R R R R R R -.+.R R R R R R R R R R R R R R R R R R R R     R R W _ ` ` ( O.1.[ ` ( ' R R R R R R R R R R R R R R R R R ",
"R R R R R R R R R R -.-.R R R R R R R R R R R R R R R R R R R R     R R ( $.@.@.@.W W :.:.<.:.R R R R R R R R R R R R R R R R R ",
"R R R R R R R R 3.,.W R >.>.R R R R R R R R R R R R R R R R R R R R R R ^ $.o.@.=.W Q 2.:.3.2.R R R R R R R R R R R R R R R R R ",
"R R R R R R R R -.1.( R -.;.9 e q t u t e R R R R R R R R R R R R R R R R R R W ) $.0 3 8 3 W 4 5 8 q e R R R R R R R R R R R R ",
"R R R R R R R R R W <.| / ~ R R E W ! R R R R R R R R R R R R R R R R R R R R Q Q 2.=.( R R R R R R R R R R R R R R R R R R R R ",
"R R R R R R R R R W >.,.R R R R R R R R R R R R R R R R R R R R R R R R R R R R R #.-.( R R R R R R R R R R R R R R R R R R R R ",
"R R R R R R R R R R R R R R R R R R R R R R R R R R R R R R R R R R R R R R R R R =.3._ R R R R R R R R R R R R R R R R R R R R ",
"R R R R R R R R R R R R R R R R R R R R R R R R R R R R R R R R R R R R R R R R R R ^ R R R R R R R R R R R R R R R R R R R R R ",
"R R R R R R R R R R R R R R R R R R R R R R R R R R R R R R R R R R R R R R R R R R R R R R R R R R R R R R R R R R R R R R R R ",
"R R R R R R R R R R R R R R R R R R R R R R R R R R R R R R R R R R R R R R R R R R R R R R R R R R R R R R R R R R R R R R R R ",
"R R R R R R R R R R R R R R R R R R R R R R R R R R R R R R R R R R R R R R R R R R R R R R R R R R R R R R R R R R R R R R R R ",
"R R R R R R R R R R R R R R R R R R R R R R R R R R R R R R R R R R R R R R R R R R R R R R R R R R R R R R R R R R R R R R R R ",
"R R R R R R R R R R R R R R R R R R R R R R R R R R R R R R R R R R R R R R R R R R R R R R R R R R R R R R R R R R R R R R R R "
};
