/* XPM */
static char *aacf7a17aafd4755d040894b4c30ea28716ZIxW5ZPbC74O8[] = {
/* columns rows colors chars-per-pixel */
"64 64 95 2 ",
"   c #FD0000",
".  c #F70903",
"X  c #F90801",
"o  c #F21703",
"O  c #F01D03",
"+  c #ED071D",
"@  c #F52402",
"#  c #F32A03",
"$  c #DF0B2F",
"%  c #E10A2E",
"&  c #E00B30",
"*  c #FA5702",
"=  c #FA5A03",
"-  c #F76003",
";  c #FC7D02",
":  c #2EFE00",
">  c #33FE00",
",  c #38FD01",
"<  c #32FB0B",
"1  c #2DF21E",
"2  c #30F719",
"3  c #2AED2A",
"4  c #2CF024",
"5  c #2EF030",
"6  c #45FD02",
"7  c #4CFD01",
"8  c #55FE02",
"9  c #75FA07",
"0  c #21D95E",
"q  c #27E34E",
"w  c #1CD16F",
"e  c #1CCF72",
"r  c #FB8301",
"t  c #FD8F02",
"y  c #FD9301",
"u  c #FE9A00",
"i  c #FCA102",
"p  c #F7AB03",
"a  c #F7B005",
"s  c #F4BB05",
"d  c #FBBF02",
"f  c #8EFB05",
"g  c #8AFA08",
"h  c #9DFB04",
"j  c #92F90A",
"k  c #A4FB04",
"l  c #FBC702",
"z  c #FBC802",
"x  c #CFFA07",
"c  c #D7FB06",
"v  c #D5FD0A",
"b  c #DDFD0A",
"n  c #FBE403",
"m  c #FDEC02",
"M  c #EBFE01",
"N  c #E7FD08",
"B  c #FDF103",
"V  c #F5FF01",
"C  c #FFFF01",
"Z  c #5B3DFD",
"A  c #6E30F1",
"S  c #6634FE",
"D  c #6833FE",
"F  c #3C59FA",
"G  c #1C7EFE",
"H  c #3264FB",
"J  c #2B73FD",
"K  c #4C4AFC",
"L  c #5643FD",
"P  c #5842FE",
"I  c #A41F94",
"U  c #9F209C",
"Y  c #0FB9A6",
"T  c #0FB7AA",
"R  c #0FB7B0",
"E  c #0DB3BB",
"W  c #0EB5B9",
"Q  c #07A7D7",
"!  c #09AAD1",
"~  c #08A8D6",
"^  c #06A6DB",
"/  c #07A6DE",
"(  c #08A8DC",
")  c #039EEE",
"_  c #1787FE",
"`  c #1980FE",
"'  c #1788FE",
"]  c #029CF1",
"[  c #029EF2",
"{  c #029CF4",
"}  c #0096FF",
"|  c #0496FD",
" . c #019AFB",
".. c #009AFC",
"X. c #0098FF",
/* pixels */
"S S S S S S S S S S S S S S S S S A $                                       .             $ A S S S S S S S S S S S S S S S S S ",
"S S S S S S S S S S S S S S S S S A %                                                     $ A S S S S S S S S S S S S S S S S S ",
"Z S S Z Z S S S S Z S S S S S Z S S %                                                     & D S Z S Z S Z S S S S Z S S S S S Z ",
"I U U U U U U U U U U U U U U U U I +                                                     + I U U U U U U U U U U U U U U U U U ",
"                        .                                                                                               .       ",
"                                                                                                                                ",
"                                                                                                                                ",
"                                                                                                                                ",
"                                                                                                                                ",
"                                    .   . . . . .   . .   .       . .       .   . . . .                                         ",
"                                . . @ # # # # # # # # # # # # # # # # # # # # # # # O # # @ X                                   ",
"                                  o ; u t t y y y t y y y y y t y y y y y y t t y y y y u ; X                                   ",
"                                . o r u u u u u u u u u u u u u u u u u u u u u u u u u u ; X                                   ",
"X X X X X X X X X X X X . X X . . O r u u u u u u u u u u u u u u u u u u u u u u u u u u r . . X X X X X X X X X X X X X X X X ",
"* * = * = * * * = * * * = = = * = - t u u u u u u y u u u u u u u u u u u u u u u u u u u t = = * * = * * * * * = * * * * * = * ",
"u i i u i i u i i u i i u u i u u u u u u u u u u u u u u u u u u u u u u u u u u u u u u u u i u i i u i i u i i u i i u i i u ",
"u u u u u u u u y u u u u u u u u u u u u u u u u u u u u u u u u u u u u u u u u u u u u u u u u u u u y u u u u u u u u u u u ",
"u u u u u u u u u u u u u u u u u u u u u u u u u u u u u u u u u u u u u u u u u u u u u u u u u u u u u u u u u u u u u u u u ",
"u u u u u u u u u u u u u u u y u u u u u u u u u u u u u u u u u u u u u u u u u u u u u u u u u u u u u u u u u u u y u u u u ",
"u u u u u u u u u u u u u u u u u u y u y u u u u u u u y u u y y u y u u u u u u u u y u u u u u u u u u u u u u u u u u y u u ",
"u u u u u u u u u u u u u u u u u u i i u i i i i i i i i i i u u i i i u i i i u i i i i u u u u u u u u u u u u u u u u u u u ",
"u u u u u u y u u u u u y u u u u u l z l l l z l l l z z l z l l l l z l l z z z z z z z d u u u u u u u u u u y u u u u u u u ",
"u u u u u u u u u u u u u u u u u p B C C C C C C C C C C C C C C C C C C C C C C C C C C m u u u u u u u u u u u u u u u u u u ",
"u u u u u u u u u u u u u u u u u p m C C C C C C C C C C C C C C C C C C C C C C C C C C m i u u u u u u u u u u u u u u u u u ",
"p p a a a a a p a a a a a a a a a s B V C C C C C C C C C C C C C C C C C C C C C C C C C B a a a a a a a a a a p a p a a a a a ",
"n n n n n n n n n n n n n n n n n n C C C C C C C C C C C C C C C C C C C C C C C C C C C C n n n n n n n n n n n n n n n n n n ",
"C C C C C C C C C C C C C C C C C C C C C C C C C C C C C C C C C C C C C C C C C C C C C C C C C C C C C C C C C C C C C C C C ",
"C C C C C C C C C C C C C C C C C C C C C C C C C C C C C C C C C C C C C C C C C C C C C C C C C C C C C C C C C C C C C C C C ",
"C C C C C C C C C C C C C C C C C C C C C C C C C C C C C C C C C C C C C C C C C C C C C C C C C C C C C C C C C C C C C C C C ",
"C C C C C C C C C C C C C C C C C C C C C C C C C C C C C C C C C C C C C C C C C C C C C C C C C C C C C C C C C C C C C C C C ",
"C C C C C C C C C C C C C C C C C C C C C C C C C C C C C C C C C C C C C C C C C C C C C C C C C C C C C C C C C C C C C C C C ",
"C C C C C C C C C C C C C C C C C V v x x x x x x x x x x x x x x x x x x c x x x x x x x c C C C C C C C C C C C C C C C C C C ",
"C C C C C C C C C C C C C C C C C N g 9 9 9 9 9 9 9 9 9 9 9 9 9 9 9 9 9 9 9 9 9 9 9 9 9 9 f V C C C C C C C C C C C C C C C C C ",
"C C C C C C C C C C C C C C C C V b 7 : > > > > > > > > : > > > > : > > > > : > > > > > : 8 V C C C C C C C C C C C C C C C C C ",
"V V V V V V V V V V V V V V V V V v 8 : > > > , > > > > > > > > > > > > > > > > > > > > : 8 M C V V V V V V V V V V V V V V V V ",
"k k k k k k k k k k k k k k k k k j 6 > > > > > > > > > > > > > > > > > > > > > > > > > > 6 h k k k k k k k k k k k k k k k k k ",
"7 7 7 7 7 7 7 7 7 6 8 7 7 7 7 7 7 6 , , > > > > > > > > > > > > > > > , > > > > > > > > > > 7 7 7 7 7 7 7 7 7 7 7 7 7 7 7 7 7 7 ",
"> : : > : : > : > : > : > > : > < : > > > > > > > > > > > > > > > > > > > > > > , > > > > > : > : > : > : > : > > : : : : : : > ",
"> > > > > > > > > > > > > > > , > , > > > > > > > , > > > > > > > > > > > > > , > > > > > > > > > > > > > > > > > > > > > > > > ",
"> > > > > > > > > > > > > > > > > > > > > > > > > > > > > > > , > > > > > > > > > > > > > > > > > > > > > > > > > > > > > > > , ",
"> > > > > > > > , > > > > > > > > > > > > > > > > > > > > > > > , > > > > > > > > > > > > > > > > , > > > > > > > > > > > > > > ",
"> > > > > > > > > > > > > , > > > > > > > > > > > > > > > , > > > > > > > > > > > > > > > > > > > > > > > > > > > > > > > > > > ",
"> > > > > > > > > > > > > > > > > 1 0 e w w w w w w w w w w w w w e w w w w w w w w w w e 0 , > > > > > > > > > > > > > > > > > ",
"> > > > > , > > > > > > > > > > < 5 W ( Q Q Q ~ ~ ~ ~ ~ ~ Q Q Q ~ Q ~ ~ ^ ~ ~ ~ ~ ^ ~ ~ / R < > > > , > > > > > > > > > > > > > ",
", > > > > > , > , , > > > > > > > 5 ( X.} X.} X.X.X.X.X.X.X.X.X.} } X.} X.} X.X.} } X.X.X.! < > , > > > > > > > , > > , , > > > ",
"1 4 1 1 1 1 1 1 1 1 1 1 1 1 1 1 4 q / X.X.X.X.X.X.X.X.X.X...X.X.X.X.X.X.X. .X. .X.X.X.X.} ~ 3 1 1 1 4 2 1 1 2 4 1 4 2 1 1 1 4 1 ",
"Y Y Y Y Y Y Y Y Y Y Y Y Y Y Y Y T W ] X.X.X.X.X.X. .X.X.X.X.X.X.X.X.X.X.X.X.X.X.X.X.X.X.} ) Y Y Y Y Y Y Y Y Y Y Y Y Y Y Y Y Y Y ",
"] ] ] ] ] ] ] ] ] ] ] ] ] ] ] ] ] { X.X. .X.X.X.X.X. .X.X.X.X.X.X.X.X.X.X.X.X.X.X.X.X.X.X. .] ] ] ] ] ] ] ] ] ] ] ] ] ] ] ] ] ) ",
"X.X.X.X.X.X.X.X.X.X.X.X.X.X.X.X.X.X.X.X.X.X.X.X.X. .X. .X.X.X...X.X. .X. .X. .X. . .X.X.X.X.X.} X.X.X.} X.X.X.X.X.X.X.X.X.X.X.} ",
"X.X.X.X.X.X.X.X.X.X.X.X.X.X.X. . .X.X.X.X.X.X.X.X.| X.X.X.X.X.X.X. .X. .X.X.X. . .| X.X.X. .X.X.X.X.X.X.X.X.X.X.X.X.X.X.X.X.X. .",
"X. . .X.X. . .X.X.X.X.X.X.X.X. . . .X.X.....| X.X.X.X.X.X.X.X.X.|  .X.X.X.X.X.X.X.X.| X.X. .X. .X. .X.X.X. . .X.X.X.X.X. .X.X. .",
"X.X.X.X. .X.X.X.X.X.X. . .X.X.X.| X. .X.X.X.X. . .X. .X. .X. . .X. .X. .X. .X. . .X.X. .X.X.X.X.X.X.X.X.X. .X. .X. . .X.X.X.X.X.",
"X.X.X.X.X. .X. . .X.X.X.X.X.X.X. .X.| | | | }  .| | | | | | X.| | | | | X.| | | | | | | X.| X.X. .X. .X.X.X.X.X. .X.X. .X.X.X.X.",
"..X.X.X.X.X. .X.X. . .X.X.X.X.X.X.' H F F F F F F F F F F F F F F F F F F F F F F F F F F H }  .X. .X. .X.X.X.X.X. .X. .X.X. .X.",
"X. . . . . . . . .X. . . . . .X.| ' K S Z D P S S Z S Z Z S Z S Z S Z S Z S S Z Z S S Z S K | X. . . . . . . . . .X. . .X. .X.X.",
" . . . . . . . . . . . . . . . . .' L D S S D D S S S D S D S S S S S S S S S S S S S S D L }  . . . . . . . . . . . . . . . . .",
"` ` ` ` ` G ` _ ' ` ` ` ` ` ` ' ` J P D D D S S S S S D D S S S S S S S S S S D S S S S D L J ' ` G ` ` ` ` ' ' ' ` G ` ` ` ` ` ",
"P Z P P Z P P P P Z Z P P Z Z Z P P D D S D S S D S S S D S S D S D D S S D S S S D S D S S L L P P P P Z Z P P P Z P P P Z P Z ",
"S S S S S S S S S S S S S S S S S S S S S A S S S S S S D S S D S S S D S S S D S S S S D D S S S S S D S S S S S S S S S S S S ",
"S S S S S S S D S S S S S S S S S S S S D S S S S S S D S D S S S S S D D S D S S S D D S S S S S S S S S S D S S S S S S S S S ",
"S S S S S D D S S S S S S S S S S S S S S S D S S S S S S S S S D D S S S S S S S S D S S D D S S S S S S S D S D S S S S S S S ",
"S S S S S S S D S D S S S S S S S S S D S S S S S S S D S S S S D D S S S S S S D S S S D S S D S S S S S S S S S S S S S S S S ",
"S S S S S S S S S D S S S S S S S S S S S S S S S S D S S S S S S S S S S S S S S S S S S S S S D S S S S S D D S S S S S S S S ",
"S S S S S S D S S D S S S S S S S S S S D S D S D S D D S D D S S S S S S S D D D S S D S S S S S S S S S D D D S S S S S S S S "
};
